<svg width="20" height="13" viewBox="0 0 20 13" fill="none" xmlns="http://www.w3.org/2000/svg">
<path d="M12.4809 12.2734C12.3284 12.1213 12.2422 11.915 12.241 11.6996C12.2398 11.4843 12.3238 11.2771 12.4746 11.1233L16.2684 7.3177L1.81244 7.3177C1.59697 7.3177 1.39032 7.23212 1.23796 7.07978C1.0856 6.92744 1 6.72082 1 6.50538C1 6.28994 1.0856 6.08332 1.23796 5.93098C1.39032 5.77865 1.59697 5.69306 1.81244 5.69306L16.2684 5.69306L12.4684 1.88386C12.3189 1.72942 12.2358 1.52254 12.2369 1.30757C12.2381 1.0926 12.3234 0.886636 12.4746 0.733817C12.5502 0.659114 12.6397 0.600018 12.738 0.559901C12.8364 0.519784 12.9417 0.499434 13.0479 0.500012C13.1542 0.500589 13.2592 0.522084 13.3572 0.563268C13.4551 0.604452 13.5439 0.664519 13.6186 0.740038L18.7688 5.92681C18.8392 6.00198 18.8963 6.08852 18.9377 6.18276C18.9799 6.2816 19.0011 6.38814 19 6.49561C19.0001 6.7081 18.9172 6.91223 18.7688 7.06441L13.6186 12.2512C13.5457 12.3279 13.4583 12.3894 13.3614 12.4321C13.2646 12.4747 13.1602 12.4978 13.0544 12.4998C12.9486 12.5019 12.8434 12.483 12.7449 12.4441C12.6465 12.4052 12.5567 12.3472 12.4809 12.2734Z" fill="#282A2E" stroke="#282A2E" stroke-width="0.5"/>
</svg>
