<svg width="20" height="13" viewBox="0 0 20 13" fill="none" xmlns="http://www.w3.org/2000/svg">
<path d="M7.51914 0.726606C7.67163 0.878748 7.75785 1.08496 7.75901 1.30035C7.76018 1.51574 7.6762 1.72287 7.52536 1.87665L3.7316 5.6823L18.1876 5.6823C18.403 5.6823 18.6097 5.76788 18.762 5.92022C18.9144 6.07256 19 6.27918 19 6.49462C19 6.71006 18.9144 6.91668 18.762 7.06901C18.6097 7.22135 18.403 7.30694 18.1876 7.30694L3.7316 7.30694L7.53159 11.1161C7.68114 11.2706 7.76424 11.4775 7.76308 11.6924C7.76192 11.9074 7.67658 12.1134 7.52536 12.2662C7.44984 12.3409 7.36034 12.4 7.26198 12.4401C7.16361 12.4802 7.05831 12.5006 6.95208 12.5C6.84584 12.4994 6.74077 12.4779 6.64284 12.4367C6.54492 12.3955 6.45607 12.3355 6.38137 12.26L1.23116 7.07319C1.16081 6.99802 1.10371 6.91148 1.06227 6.81724C1.02006 6.7184 0.998868 6.61186 1.00005 6.50439C0.999887 6.2919 1.08283 6.08777 1.23116 5.93559L6.38137 0.748825C6.45429 0.672114 6.54171 0.610635 6.63856 0.567948C6.73542 0.525262 6.83979 0.502218 6.94561 0.500152C7.05144 0.498085 7.15663 0.517037 7.25508 0.555909C7.35352 0.594782 7.44328 0.652801 7.51914 0.726606Z" fill="#282A2E" stroke="#282A2E" stroke-width="0.5"/>
</svg>
