<svg xmlns="http://www.w3.org/2000/svg" viewBox="0 0 9.33 9.33"><defs><style>.cls-1{fill:#e28c71;}.cls-2{fill:#fff;}</style></defs><g id="Layer_2" data-name="Layer 2"><g id="Layer_1-2" data-name="Layer 1"><path class="cls-1" d="M3.11,0H7.63a1.7,1.7,0,0,1,1.7,1.71V7.63a1.7,1.7,0,0,1-1.7,1.7H1.71A1.7,1.7,0,0,1,0,7.63V1.76C0,0,1.39,0,3.11,0"/><path class="cls-2" d="M2.72,6a.2.2,0,0,0-.19.19.2.2,0,0,0,.19.2H3.5v.39H5.44A.59.59,0,0,0,6,6.42h.82V6H6a.57.57,0,0,0-.55-.39H3.5V6Zm2.92.19a.2.2,0,0,1-.2.2H5.06V6h.38a.2.2,0,0,1,.2.19m-1,.2H3.89V6h.78ZM2.72,4.47a.2.2,0,0,0-.19.2.2.2,0,0,0,.19.19H3.5v.39H5.44A.57.57,0,0,0,6,4.86h.82V4.47H6a.59.59,0,0,0-.55-.39H3.5v.39Zm2.92.2a.2.2,0,0,1-.2.19H5.06V4.47h.38a.2.2,0,0,1,.2.2m-1,.19H3.89V4.47h.78ZM3.5,2.92H2.72a.19.19,0,0,0-.19.19.2.2,0,0,0,.19.2H3.5v.38H5.44A.58.58,0,0,0,6,3.31h.82V2.92H6a.57.57,0,0,0-.55-.39H3.5Zm2.14.19a.2.2,0,0,1-.2.2H5.06V2.92h.38a.19.19,0,0,1,.2.19m-1,.2H3.89V2.92h.78Z"/></g></g></svg>