<svg xmlns="http://www.w3.org/2000/svg" viewBox="0 0 1.52 1.77"><g id="Layer_2" data-name="Layer 2"><g id="Layer_1-2" data-name="Layer 1"><path d="M.76,1.77h0a.9.9,0,0,1-.38-.2A1.19,1.19,0,0,1,0,.62V.3H.07A.94.94,0,0,0,.71.05L.76,0,.81.05A1,1,0,0,0,1.45.3h.07V.62a1.57,1.57,0,0,1-.11.6,1,1,0,0,1-.26.35.85.85,0,0,1-.38.2ZM.13.42v.2a1.1,1.1,0,0,0,.32.85.73.73,0,0,0,.31.17.73.73,0,0,0,.31-.17A1.1,1.1,0,0,0,1.39.62V.42A1,1,0,0,1,.76.18,1,1,0,0,1,.13.42Z" style="fill:#e28c71"/><path d="M.63,1.29a.07.07,0,0,1-.06,0L.39,1.09A.1.1,0,1,1,.53,1l.09.1L1,.58a.1.1,0,0,1,.14,0,.09.09,0,0,1,0,.13l-.43.55a.08.08,0,0,1-.07,0Z" style="fill:#e28c71"/></g></g></svg>