<svg width="20" height="20" viewBox="0 0 20 20" fill="none" xmlns="http://www.w3.org/2000/svg">
<path d="M17.225 16.0995C17.225 16.5169 16.8935 16.8484 16.4761 16.8484H3.35221C2.9348 16.8484 2.60333 16.5169 2.60333 16.0995V8.14415H4.33436C4.17476 8.6475 4.08882 9.19995 4.08882 9.75241C4.08882 12.8953 6.71605 15.4366 9.94485 15.4366C13.1859 15.4366 15.8132 12.8953 15.8132 9.75241C15.8132 9.19995 15.7272 8.6475 15.5676 8.14415H17.225V16.0995ZM13.7384 9.55598C13.7384 11.5816 12.0442 13.2267 9.94485 13.2267C7.85779 13.2267 6.1636 11.5816 6.1636 9.55598C6.1636 7.53031 7.85779 5.88522 9.94485 5.88522C12.0442 5.88522 13.7384 7.53031 13.7384 9.55598ZM17.225 5.13633C17.225 5.60285 16.8444 5.98343 16.3779 5.98343H14.2417C13.7752 5.98343 13.3946 5.60285 13.3946 5.13633V3.11067C13.3946 2.64415 13.7752 2.26357 14.2417 2.26357H16.3779C16.8444 2.26357 17.225 2.64415 17.225 3.11067V5.13633ZM19.3611 2.58276C19.3611 1.25687 18.2685 0.164236 16.9426 0.164236H2.92253C1.59663 0.164236 0.503999 1.25687 0.503999 2.58276V16.6029C0.503999 17.9287 1.59663 19.0214 2.92253 19.0214H16.9426C18.2685 19.0214 19.3611 17.9287 19.3611 16.6029V2.58276Z" fill="#656565"/>
</svg>
