<svg width="42" height="36" viewBox="0 0 42 36" fill="none" xmlns="http://www.w3.org/2000/svg">
<path d="M19.3013 4.9143C19.3013 2.25247 17.1417 0.0928674 14.4799 0.0928674H4.83705C2.17522 0.0928674 0.015625 2.25247 0.015625 4.9143V14.5572C0.015625 17.219 2.17522 19.3786 4.83705 19.3786H10.4621C11.793 19.3786 12.8728 20.4584 12.8728 21.7893V22.5929C12.8728 26.1336 9.98493 29.0214 6.4442 29.0214H4.83705C3.95815 29.0214 3.22991 29.7497 3.22991 30.6286V33.8429C3.22991 34.7218 3.95815 35.45 4.83705 35.45H6.4442C13.5257 35.45 19.3013 29.6743 19.3013 22.5929V4.9143ZM41.8013 4.9143C41.8013 2.25247 39.6417 0.0928674 36.9799 0.0928674H27.3371C24.6752 0.0928674 22.5156 2.25247 22.5156 4.9143V14.5572C22.5156 17.219 24.6752 19.3786 27.3371 19.3786H32.9621C34.293 19.3786 35.3728 20.4584 35.3728 21.7893V22.5929C35.3728 26.1336 32.4849 29.0214 28.9442 29.0214H27.3371C26.4581 29.0214 25.7299 29.7497 25.7299 30.6286V33.8429C25.7299 34.7218 26.4581 35.45 27.3371 35.45H28.9442C36.0257 35.45 41.8013 29.6743 41.8013 22.5929V4.9143Z" fill="#E39178"/>
</svg>
