<svg width="20" height="17" viewBox="0 0 20 17" fill="none" xmlns="http://www.w3.org/2000/svg">
<path d="M19.7882 2.60174C19.0761 2.90866 18.3027 3.12964 17.5047 3.21558C18.3273 2.7245 18.9534 1.95107 19.248 1.03031C18.4869 1.48455 17.6275 1.81602 16.7313 1.9879C16.0069 1.21446 14.9757 0.735665 13.834 0.735665C11.6364 0.735665 9.86855 2.5158 9.86855 4.70107C9.86855 5.00799 9.90538 5.31491 9.96677 5.60955C6.67659 5.43767 3.74244 3.86625 1.79043 1.46C1.44668 2.04928 1.25025 2.7245 1.25025 3.46111C1.25025 4.83611 1.95003 6.05151 3.01811 6.76357C2.36744 6.73901 1.7536 6.55486 1.2257 6.26022C1.2257 6.2725 1.2257 6.29705 1.2257 6.30933C1.2257 8.23678 2.58842 9.83276 4.40538 10.2011C4.07391 10.287 3.71788 10.3361 3.36186 10.3361C3.10404 10.3361 2.85851 10.3116 2.61297 10.2747C3.11632 11.8462 4.57726 12.9879 6.32056 13.0247C4.95784 14.0928 3.25137 14.7189 1.39757 14.7189C1.0661 14.7189 0.759178 14.7066 0.439982 14.6698C2.19556 15.7993 4.28262 16.45 6.52927 16.45C13.8217 16.45 17.8116 10.4098 17.8116 5.16758C17.8116 4.99571 17.8116 4.82383 17.7994 4.65196C18.5728 4.08723 19.248 3.38745 19.7882 2.60174Z" fill="#656565"/>
</svg>
