<svg xmlns="http://www.w3.org/2000/svg" viewBox="0 0 11.64 12.5"><defs><style>.cls-1{fill:#e28c71;}.cls-2,.cls-3{isolation:isolate;}.cls-3{font-size:5.18px;fill:#fff;font-family:Poppins-Bold, Poppins;font-weight:700;}</style></defs><g id="Layer_2" data-name="Layer 2"><g id="Layer_1-2" data-name="Layer 1"><g id="Buy"><g id="_004-paper-bag" data-name=" 004-paper-bag"><g id="Bag"><g id="Group_97" data-name="Group 97"><path id="Path_261" data-name="Path 261" class="cls-1" d="M7.69,2.63a.3.3,0,0,0-.3-.27H5.91V1.77a1.77,1.77,0,0,0-3.54,0v.59H.89a.31.31,0,0,0-.3.27L0,9.14a.31.31,0,0,0,.27.32H8a.3.3,0,0,0,.3-.3v0ZM3,1.77a1.18,1.18,0,0,1,2.36,0v.59H3ZM.62,8.87,1.16,3H2.37v.68a.58.58,0,0,0-.22.8.59.59,0,1,0,1-.59A.53.53,0,0,0,3,3.63V3H5.32v.68a.59.59,0,1,0,.59,1,.6.6,0,0,0,.22-.81.56.56,0,0,0-.22-.21V3H7.12l.53,5.92Z"/></g></g></g><circle id="Ellipse_23" data-name="Ellipse 23" class="cls-1" cx="7.96" cy="7.5" r="3.68"/><g id="_10" data-name=" 10" class="cls-2"><text class="cls-3" transform="translate(6.52 9.35)">3</text></g></g></g></g></svg>