<svg xmlns="http://www.w3.org/2000/svg" viewBox="0 0 12 17.53"><defs><style>.cls-1{fill:#e28c71;}</style></defs><g id="Layer_2" data-name="Layer 2"><g id="Layer_1-2" data-name="Layer 1"><path class="cls-1" d="M10.46,7.88c.3-.41.75-1,.91-1.29A4.3,4.3,0,0,0,10.27,1L10,.79A4.61,4.61,0,0,0,6.73,0a4.68,4.68,0,0,0-3,1.6C3.54,2,2.81,3,2.64,3.28l1.59,1,.11-.15a5.5,5.5,0,0,1,1.85-2,2.7,2.7,0,0,1,2.56.11l.08.05A2.43,2.43,0,0,1,10,4.56,4.28,4.28,0,0,1,9,6.72,6.1,6.1,0,0,0,6,6a5.9,5.9,0,0,0-6,5.78,5.9,5.9,0,0,0,6,5.78,5.9,5.9,0,0,0,6-5.78A5.67,5.67,0,0,0,10.46,7.88ZM6.1,13.59a1.27,1.27,0,0,1-1.28-1.27,1.31,1.31,0,0,1,.54-1.05.89.89,0,0,1-.16-.52.9.9,0,1,1,1.63.52,1.28,1.28,0,0,1-.73,2.32Z"/></g></g></svg>