<svg xmlns="http://www.w3.org/2000/svg" viewBox="0 0 20 20"><defs><style>.cls-1{fill:#e28c71;}.cls-2{fill:#fff;}</style></defs><g id="Layer_2" data-name="Layer 2"><g id="Layer_1-2" data-name="Layer 1"><circle class="cls-1" cx="10" cy="10" r="10"/><path class="cls-2" d="M7.77,14.08h0A.89.89,0,0,1,7,13.67a15.08,15.08,0,0,0-2.69-2.95.88.88,0,0,1-.11-1.24.87.87,0,0,1,1.23-.11,17.23,17.23,0,0,1,2.36,2.4,33.14,33.14,0,0,1,6.8-5.71.88.88,0,0,1,1,1.48,28.75,28.75,0,0,0-7.09,6.18A.88.88,0,0,1,7.77,14.08Z"/></g></g></svg>